<?xml version="1.0" encoding="utf-8"?>
<svg viewBox="0 0 5641 800" preserveAspectRatio="xMidYMid meet" fill="none" xmlns="http://www.w3.org/2000/svg">
<path d="M168.717 400C185.121 268.456 297.334 166.667 433.32 166.667C580.597 166.667 699.987 286.057 699.987 433.333C699.987 580.61 580.597 700 433.32 700H266.667" stroke="#9230F4" stroke-width="66.6667" stroke-linecap="round" stroke-linejoin="round"/>
<path d="M433.333 433.333V300" stroke="#3074F4" stroke-width="66.6667" stroke-linecap="round" stroke-linejoin="round"/>
<path d="M366.667 100H500" stroke="#F4C630" stroke-width="66.6667" stroke-linecap="round" stroke-linejoin="round"/>
<path d="M166.667 600H333.333" stroke="#F4C630" stroke-width="66.6667" stroke-linecap="round" stroke-linejoin="round"/>
<path d="M963.024 174.675L963.024 696.675" stroke="white" stroke-width="66.6667" stroke-linecap="round" stroke-linejoin="round"/>
<path d="M1077 175C1169.78 175 1245 238.128 1245 316C1245 393.872 1169.78 457 1077 457" stroke="white" stroke-width="66.67" stroke-linecap="round"/>
<path d="M4674 175L4674 697" stroke="white" stroke-width="66.6667" stroke-linecap="round" stroke-linejoin="round"/>
<path d="M4788 457L4933 687" stroke="white" stroke-width="66.6667" stroke-linecap="round" stroke-linejoin="round"/>
<path d="M4787.98 175.325C4880.76 175.325 4955.98 238.453 4955.98 316.325C4955.98 394.198 4880.76 457.325 4787.98 457.325" stroke="white" stroke-width="66.67" stroke-linecap="round"/>
<path d="M1613 241.932C1508.17 252.549 1425.67 341.795 1425.67 451.203C1425.67 560.611 1508.17 649.856 1613 660.474V727.406C1470.93 716.601 1359 597.069 1359 451.203C1359 305.337 1470.93 185.806 1613 175V241.932ZM1666 176.06C1802.8 192.028 1909 309.123 1909 451.203C1909 593.283 1802.8 710.377 1666 726.346V659.061C1765.55 643.54 1842.33 556.755 1842.33 451.203C1842.33 345.651 1765.55 258.866 1666 243.345V176.06Z" fill="white"/>
<path d="M2978 226.932C2873.17 237.549 2790.67 326.795 2790.67 436.203C2790.67 545.611 2873.17 634.856 2978 645.474V712.406C2835.93 701.601 2724 582.069 2724 436.203C2724 290.337 2835.93 170.806 2978 160V226.932ZM3031 161.06C3167.8 177.028 3274 294.123 3274 436.203C3274 578.283 3167.8 695.377 3031 711.346V644.061C3130.55 628.54 3207.33 541.755 3207.33 436.203C3207.33 330.651 3130.55 243.866 3031 228.345V161.06Z" fill="white"/>
<path d="M4202 211.932C4097.17 222.549 4014.67 311.795 4014.67 421.203C4014.67 530.611 4097.17 619.856 4202 630.474V697.406C4059.93 686.601 3948 567.069 3948 421.203C3948 275.337 4059.93 155.806 4202 145V211.932ZM4255 146.06C4391.8 162.028 4498 279.123 4498 421.203C4498 563.283 4391.8 680.377 4255 696.346V629.061C4354.55 613.54 4431.33 526.755 4431.33 421.203C4431.33 315.651 4354.55 228.866 4255 213.345V146.06Z" fill="white"/>
<path d="M5345 226.932C5240.17 237.549 5157.67 326.795 5157.67 436.203C5157.67 545.611 5240.17 634.856 5345 645.474V712.406C5202.93 701.601 5091 582.069 5091 436.203C5091 290.337 5202.93 170.806 5345 160V226.932ZM5398 161.06C5534.8 177.028 5641 294.123 5641 436.203C5641 578.283 5534.8 695.377 5398 711.346V644.061C5497.55 628.54 5574.33 541.755 5574.33 436.203C5574.33 330.651 5497.55 243.866 5398 228.345V161.06Z" fill="white"/>
<path d="M2072 175L2072 697" stroke="white" stroke-width="66.6667" stroke-linecap="round" stroke-linejoin="round"/>
<path d="M2055.13 152.468C2068.87 140.208 2089.94 141.402 2102.2 155.135L2286.33 361.395V461.462C2286.04 461.158 2285.75 460.848 2285.47 460.531L2052.47 199.532C2040.21 185.799 2041.4 164.728 2055.13 152.468Z" fill="white"/>
<path d="M2561.33 175L2561.33 697" stroke="white" stroke-width="66.6667" stroke-linecap="round" stroke-linejoin="round"/>
<path d="M2578.2 152.468C2564.47 140.208 2543.39 141.402 2531.13 155.135L2347 361.395V461.462C2347.29 461.158 2347.58 460.848 2347.87 460.531L2580.87 199.532C2593.13 185.799 2591.93 164.728 2578.2 152.468Z" fill="white"/>
<path d="M3450 174.675L3450 696.675" stroke="white" stroke-width="66.6667" stroke-linecap="round" stroke-linejoin="round"/>
<path d="M3541 184C3680.18 184 3793 296.6 3793 435.5C3793 574.4 3680.18 687 3541 687" stroke="white" stroke-width="66.67"/>
</svg>
